<?xml version="1.0" encoding="utf-8"?>
<!-- Generator: Adobe Illustrator 24.3.0, SVG Export Plug-In . SVG Version: 6.00 Build 0)  -->
<svg version="1.1" id="Layer_1" xmlns="http://www.w3.org/2000/svg" xmlns:xlink="http://www.w3.org/1999/xlink" x="0px" y="0px"
	 viewBox="0 0 1129.29 65.6" style="enable-background:new 0 0 1129.29 65.6;" xml:space="preserve">
<style type="text/css">
	.st0{fill:#C6E7F7;}
	.st1{fill:#87C8F2;}
</style>
<path class="st0" d="M1167.26,37.28c-30.22,0-20.68-24.84-14.57-21.42c3.75,2.1,0.55,6.01,0.55,6.01
	c7.21,1.4,10.24-11.87,1.85-13.96c-18.27-4.55-16.62,29.38-36.79,29.38c-30.22,0-20.68-24.84-14.57-21.42
	c3.75,2.1,0.55,6.01,0.55,6.01c7.21,1.4,10.24-11.87,1.85-13.96c-18.27-4.55-16.62,29.38-36.79,29.38
	c-30.22,0-20.67-24.84-14.57-21.42c3.75,2.1,0.55,6.01,0.55,6.01c7.21,1.4,10.24-11.87,1.85-13.96
	c-18.27-4.55-16.62,29.38-36.79,29.38c-30.22,0-20.68-24.84-14.57-21.42c3.75,2.1,0.55,6.01,0.55,6.01
	c7.21,1.4,10.24-11.87,1.85-13.96c-18.27-4.55-16.62,29.38-36.79,29.38c-30.22,0-20.67-24.84-14.57-21.42
	c3.75,2.1,0.55,6.01,0.55,6.01c7.21,1.4,10.24-11.87,1.85-13.96c-18.27-4.55-16.62,29.38-36.79,29.38
	c-30.22,0-20.68-24.84-14.57-21.42c3.75,2.1,0.55,6.01,0.55,6.01c7.21,1.4,10.24-11.87,1.85-13.96
	c-18.27-4.55-16.62,29.38-36.79,29.38c-30.22,0-20.67-24.84-14.57-21.42c3.75,2.1,0.55,6.01,0.55,6.01
	c7.21,1.4,10.24-11.87,1.85-13.96c-18.27-4.55-16.62,29.38-36.79,29.38c-30.22,0-20.68-24.84-14.57-21.42
	c3.75,2.1,0.55,6.01,0.55,6.01c7.21,1.4,10.24-11.87,1.85-13.96c-18.27-4.55-16.62,29.38-36.79,29.38h-0.42
	c-30.22,0-20.68-24.84-14.57-21.42c3.75,2.1,0.55,6.01,0.55,6.01c7.21,1.4,10.24-11.87,1.85-13.96
	c-18.27-4.55-16.62,29.38-36.79,29.38c-30.22,0-20.68-24.84-14.57-21.42c3.75,2.1,0.55,6.01,0.55,6.01
	c7.21,1.4,10.24-11.87,1.85-13.96c-18.27-4.55-16.62,29.38-36.79,29.38c-30.22,0-20.67-24.84-14.57-21.42
	c3.75,2.1,0.55,6.01,0.55,6.01c7.21,1.4,10.24-11.87,1.85-13.96c-18.27-4.55-16.62,29.38-36.79,29.38
	c-30.22,0-20.68-24.84-14.57-21.42c3.75,2.1,0.55,6.01,0.55,6.01c7.21,1.4,10.24-11.87,1.85-13.96
	c-18.27-4.55-16.62,29.38-36.79,29.38c-30.22,0-20.68-24.84-14.57-21.42c3.75,2.1,0.55,6.01,0.55,6.01
	c7.21,1.4,10.24-11.87,1.85-13.96c-18.27-4.55-16.62,29.38-36.79,29.38c-30.22,0-20.68-24.84-14.57-21.42
	c3.75,2.1,0.55,6.01,0.55,6.01c7.21,1.4,10.24-11.87,1.85-13.96c-18.27-4.55-16.62,29.38-36.79,29.38
	c-30.22,0-20.68-24.84-14.57-21.42c3.75,2.1,0.55,6.01,0.55,6.01c7.21,1.4,10.24-11.87,1.85-13.96
	c-18.27-4.55-16.62,29.38-36.79,29.38c-30.22,0-20.68-24.84-14.57-21.42c3.75,2.1,0.55,6.01,0.55,6.01
	c7.21,1.4,10.24-11.87,1.85-13.96c-18.27-4.55-16.62,29.38-36.79,29.38h0.37c-30.22,0-20.68-24.84-14.57-21.42
	c3.75,2.1,0.55,6.01,0.55,6.01c7.21,1.4,10.24-11.87,1.85-13.96c-18.27-4.55-16.62,29.38-36.79,29.38
	c-30.22,0-20.68-24.84-14.57-21.42c3.75,2.1,0.55,6.01,0.55,6.01c7.21,1.4,10.24-11.87,1.85-13.96
	c-18.27-4.55-16.62,29.38-36.79,29.38c-30.22,0-20.68-24.84-14.57-21.42c3.75,2.1,0.55,6.01,0.55,6.01
	c7.21,1.4,10.24-11.87,1.85-13.96c-18.27-4.55-16.62,29.38-36.79,29.38c-30.22,0-20.68-24.84-14.57-21.42
	c3.75,2.1,0.55,6.01,0.55,6.01c7.21,1.4,10.24-11.87,1.85-13.96c-18.27-4.55-16.62,29.38-36.79,29.38
	c-30.22,0-20.68-24.84-14.57-21.42c3.75,2.1,0.55,6.01,0.55,6.01c7.21,1.4,10.24-11.87,1.85-13.96
	c-18.27-4.55-16.62,29.38-36.79,29.38c-30.22,0-20.68-24.84-14.57-21.42c3.75,2.1,0.55,6.01,0.55,6.01
	c7.21,1.4,10.24-11.87,1.85-13.96c-18.27-4.55-16.62,29.38-36.79,29.38c-30.22,0-20.68-24.84-14.57-21.42
	c3.75,2.1,0.55,6.01,0.55,6.01c7.21,1.4,10.24-11.87,1.85-13.96C59.84,3.34,61.49,37.28,41.32,37.28
	c-30.22,0-20.68-24.84-14.57-21.42c3.75,2.1,0.55,6.01,0.55,6.01c7.21,1.4,10.24-11.87,1.85-13.96
	C10.89,3.34,12.53,37.28-7.63,37.28v20.78h1177.4L1167.26,37.28z"/>
<path class="st1" d="M1142.47,46.8c-30.22,0-20.68-24.84-14.57-21.42c3.75,2.1,0.55,6.01,0.55,6.01c7.21,1.4,10.24-11.87,1.85-13.96
	c-18.27-4.55-16.62,29.38-36.79,29.38c-30.22,0-20.68-24.84-14.57-21.42c3.75,2.1,0.55,6.01,0.55,6.01
	c7.21,1.4,10.24-11.87,1.85-13.96c-18.27-4.55-16.62,29.38-36.79,29.38c-30.22,0-20.67-24.84-14.57-21.42
	c3.75,2.1,0.55,6.01,0.55,6.01c7.21,1.4,10.24-11.87,1.85-13.96c-18.27-4.55-16.62,29.38-36.79,29.38
	c-30.22,0-20.68-24.84-14.57-21.42c3.75,2.1,0.55,6.01,0.55,6.01c7.21,1.4,10.24-11.87,1.85-13.96
	c-18.27-4.55-16.62,29.38-36.79,29.38c-30.22,0-20.67-24.84-14.57-21.42c3.75,2.1,0.55,6.01,0.55,6.01
	c7.21,1.4,10.24-11.87,1.85-13.96c-18.27-4.55-16.62,29.38-36.79,29.38c-30.22,0-20.68-24.84-14.57-21.42
	c3.75,2.1,0.55,6.01,0.55,6.01c7.21,1.4,10.24-11.87,1.85-13.96c-18.27-4.55-16.62,29.38-36.79,29.38
	c-30.22,0-20.67-24.84-14.57-21.42c3.75,2.1,0.55,6.01,0.55,6.01c7.21,1.4,10.24-11.87,1.85-13.96
	c-18.27-4.55-16.62,29.38-36.79,29.38c-30.22,0-20.68-24.84-14.57-21.42c3.75,2.1,0.55,6.01,0.55,6.01
	c7.21,1.4,10.24-11.87,1.85-13.96c-18.27-4.55-16.62,29.38-36.79,29.38h-0.42c-30.22,0-20.67-24.84-14.57-21.42
	c3.75,2.1,0.55,6.01,0.55,6.01c7.21,1.4,10.24-11.87,1.85-13.96C720,12.87,721.65,46.8,701.48,46.8
	c-30.22,0-20.68-24.84-14.57-21.42c3.75,2.1,0.55,6.01,0.55,6.01c7.21,1.4,10.24-11.87,1.85-13.96
	c-18.27-4.55-16.62,29.38-36.79,29.38c-30.22,0-20.67-24.84-14.57-21.42c3.75,2.1,0.55,6.01,0.55,6.01
	c7.21,1.4,10.24-11.87,1.85-13.96c-18.27-4.55-16.62,29.38-36.79,29.38c-30.22,0-20.68-24.84-14.57-21.42
	c3.75,2.1,0.55,6.01,0.55,6.01c7.21,1.4,10.24-11.87,1.85-13.96c-18.27-4.55-16.62,29.38-36.79,29.38
	c-30.22,0-20.68-24.84-14.57-21.42c3.75,2.1,0.55,6.01,0.55,6.01c7.21,1.4,10.24-11.87,1.85-13.96
	c-18.27-4.55-16.62,29.38-36.79,29.38c-30.22,0-20.68-24.84-14.57-21.42c3.75,2.1,0.55,6.01,0.55,6.01
	c7.21,1.4,10.24-11.87,1.85-13.96c-18.27-4.55-16.62,29.38-36.79,29.38c-30.22,0-20.68-24.84-14.57-21.42
	c3.75,2.1,0.55,6.01,0.55,6.01c7.21,1.4,10.24-11.87,1.85-13.96c-18.27-4.55-16.62,29.38-36.79,29.38
	c-30.22,0-20.68-24.84-14.57-21.42c3.75,2.1,0.55,6.01,0.55,6.01c7.21,1.4,10.24-11.87,1.85-13.96
	c-18.27-4.55-16.62,29.38-36.79,29.38h0.37c-30.22,0-20.68-24.84-14.57-21.42c3.75,2.1,0.55,6.01,0.55,6.01
	c7.21,1.4,10.24-11.87,1.85-13.96c-18.27-4.55-16.62,29.38-36.79,29.38c-30.22,0-20.68-24.84-14.57-21.42
	c3.75,2.1,0.55,6.01,0.55,6.01c7.21,1.4,10.24-11.87,1.85-13.96c-18.27-4.55-16.62,29.38-36.79,29.38
	c-30.22,0-20.68-24.84-14.57-21.42c3.75,2.1,0.55,6.01,0.55,6.01c7.21,1.4,10.24-11.87,1.85-13.96
	c-18.27-4.55-16.62,29.38-36.79,29.38c-30.22,0-20.68-24.84-14.57-21.42c3.75,2.1,0.55,6.01,0.55,6.01
	c7.21,1.4,10.24-11.87,1.85-13.96c-18.27-4.55-16.62,29.38-36.79,29.38c-30.22,0-20.68-24.84-14.57-21.42
	c3.75,2.1,0.55,6.01,0.55,6.01c7.21,1.4,10.24-11.87,1.85-13.96c-18.27-4.55-16.62,29.38-36.79,29.38
	c-30.22,0-20.68-24.84-14.57-21.42c3.75,2.1,0.55,6.01,0.55,6.01c7.21,1.4,10.24-11.87,1.85-13.96C84,12.87,85.65,46.8,65.48,46.8
	c-30.22,0-20.68-24.84-14.57-21.42c3.75,2.1,0.55,6.01,0.55,6.01c7.21,1.4,10.24-11.87,1.85-13.96
	C35.05,12.87,36.69,46.8,16.53,46.8c-30.22,0-20.68-24.84-14.57-21.42c3.75,2.1,0.55,6.01,0.55,6.01
	c7.21,1.4,10.24-11.87,1.85-13.96C-13.9,12.87-12.26,46.8-32.42,46.8v20.78h1177.4L1142.47,46.8z"/>
</svg>
